<svg xmlns="http://www.w3.org/2000/svg" width="1272" height="1273" fill="#005bff" viewBox="0 0 1272 1273"><path d="M831.039 636.292c0-107.905-87.474-195.38-195.38-195.38s-195.38 87.475-195.38 195.38c0 107.906 87.475 195.38 195.38 195.38 107.906 0 195.38-87.474 195.38-195.38"/><path d="M1215.12 536.993c-14.36 0-28.72-5.47-39.69-16.41l-317.401-316.62c-23.46-23.4-51.88-39.05-82.19-45.27-34.66-7.11-69.7-2.29-104.14 14.31-15.59 7.52-30.27 18.06-43.66 31.36l-317.45 315.29c-22.02 21.87-57.61 21.75-79.48-.27s-21.75-57.61.27-79.48l317.45-315.29c22.27-22.11 47.18-39.9 74.04-52.85 57.13-27.56 116.2-35.36 175.54-23.18 51.88 10.63 99.95 36.84 138.99 75.79l317.411 316.62c21.97 21.92 22.02 57.5.1 79.48-10.98 11.01-25.38 16.51-39.79 16.51z"/><path d="M790.529 1272.58c-14.36 0-28.72-5.47-39.69-16.41-21.97-21.92-22.02-57.5-.1-79.48l316.621-317.397c23.4-23.46 39.05-51.89 45.27-82.2 7.11-34.66 2.29-69.7-14.32-104.13-7.52-15.6-18.07-30.28-31.36-43.66l-315.291-317.45c-21.87-22.02-21.75-57.61.27-79.48 22.02-21.88 57.61-21.75 79.48.27l315.291 317.45c22.11 22.26 39.89 47.17 52.85 74.04 27.56 57.13 35.36 116.19 23.18 175.54-10.64 51.89-36.85 99.95-75.8 139L830.309 1256.07c-10.98 11.01-25.38 16.51-39.79 16.51z"/><path d="M527.129 1229.57c-18.02 0-36.1-1.85-54.22-5.57-51.88-10.64-99.94-36.85-138.99-75.8L16.509 831.582c-21.97-21.92-22.02-57.5-.1-79.48s57.5-22.02 79.48-.1l317.4 316.618c23.46 23.4 51.88 39.06 82.2 45.27 34.65 7.09 69.69 2.29 104.13-14.32 15.59-7.52 30.28-18.07 43.66-31.36l317.45-315.288c22.02-21.87 57.611-21.75 79.481.27s21.75 57.61-.27 79.48L722.489 1147.96c-22.26 22.11-47.17 39.89-74.03 52.85-39.69 19.15-80.33 28.75-121.33 28.75z"/><path d="M479.779 1056.53c-14.45 0-28.89-5.53-39.88-16.6l-315.29-317.448c-22.11-22.26-39.89-47.169-52.85-74.029-27.56-57.14-35.36-116.2-23.18-175.55 10.64-51.88 36.85-99.95 75.8-138.99l316.62-317.4c21.92-21.98 57.5-22.02 79.48-.1 21.97 21.92 22.02 57.5.1 79.48l-316.62 317.4c-23.4 23.46-39.05 51.88-45.27 82.2-7.11 34.66-2.29 69.7 14.32 104.14 7.52 15.58 18.07 30.27 31.36 43.65l315.29 317.449c21.87 22.02 21.75 57.608-.27 79.478-10.96 10.89-25.28 16.33-39.6 16.33z"/></svg>